<svg width="17" height="16" viewBox="0 0 17 16" fill="none" xmlns="http://www.w3.org/2000/svg">
    <g id="moon">
        <path id="center" fill-rule="evenodd" clip-rule="evenodd" d="M15.4292 10.8597C14.5138 11.3736 13.4578 11.6667 12.3333 11.6667C8.83553 11.6667 6 8.83114 6 5.33333C6 3.30162 6.95668 1.49335 8.44415 0.334432C8.40073 0.333707 8.35723 0.333344 8.31364 0.333344C4.07946 0.333344 0.646973 3.76583 0.646973 8.00001C0.646973 12.2342 4.07946 15.6667 8.31364 15.6667C11.537 15.6667 14.2957 13.6775 15.4292 10.8597Z" fill="#3F424A"/>
        <path id="star" d="M10 4.5C12.279 3.55154 12.5511 3.23647 13.5 1C14.4175 3.11843 14.7161 3.54594 17 4.5C14.8737 5.40613 14.408 5.80593 13.5 8C12.5695 5.82056 12.2322 5.43823 10 4.5Z" fill="#3F424A"/>
    </g>
</svg>
